<svg xmlns="http://www.w3.org/2000/svg" viewBox="0 0 253 49.4"><style type="text/css">  
	.st0{fill:#6A6A75;}
</style><path class="st0" d="M36.4 31.6h-6.3c-0.1 2.5-0.2 5.5-0.4 8.3h5.4C35.7 37.4 36.2 34.5 36.4 31.6M29 40.6h-2.7v6h1.8C28.4 45.1 28.7 43.1 29 40.6M32.3 46.6c1.1-1.5 1.9-3.6 2.6-6h-5.3c-0.2 2.2-0.5 4.3-0.9 6H32.3L32.3 46.6zM41.1 39.9c1.1-2.5 1.9-5.4 2.3-8.3h-6.3c-0.2 2.9-0.7 5.8-1.3 8.3H41.1L41.1 39.9zM48.6 31c0.3-1.5 0.5-3 0.5-4.5 0 0 0 0 0 0h-4.7v0c0 1.5-0.1 3-0.3 4.5H48.6L48.6 31zM29.5 31.6h-3.2v8.3H29C29.2 37.6 29.4 34.8 29.5 31.6M29.5 26.4L29.5 26.4l-3.3 0V31h3.2C29.5 29.5 29.5 28 29.5 26.4M36.6 26.4L36.6 26.4l-6.5 0v0c0 0.9 0 2.5-0.1 4.5h6.3C36.6 29.5 36.6 27.9 36.6 26.4M44.6 39.9c1.8-2.4 3.1-5.3 3.9-8.3H44c-0.4 2.9-1.1 5.8-2.2 8.3H44.6L44.6 39.9zM43.4 31c0.2-1.5 0.3-3 0.3-4.5 0 0 0 0 0 0h-6.5v0c0 1.5-0.1 3-0.2 4.5H43.4L43.4 31zM26.3 49.2c0.3 0 0.5 0 0.8 0 0.3-0.3 0.6-0.9 0.9-2h-1.7L26.3 49.2 26.3 49.2 26.3 49.2zM31.8 47.2h-3.2c-0.2 0.8-0.5 1.5-0.7 2 0.6 0 1.1-0.1 1.6-0.2C30.3 48.6 31.1 48 31.8 47.2M31.2 48.7c1.5-0.3 2.9-0.8 4.3-1.4 0.1 0 0.1-0.1 0.2-0.1h-3C32.1 47.8 31.7 48.3 31.2 48.7M35.5 40.6c-0.7 2.3-1.5 4.4-2.5 6h3.4c1.8-1.5 3.3-3.6 4.4-6H35.5L35.5 40.6zM37.9 46c2.4-1.4 4.5-3.3 6.2-5.4h-2.6C40.6 42.7 39.4 44.5 37.9 46"/><path class="st0" d="M12.8 17.9h6.4c0.1-2.5 0.2-5.6 0.4-8.4h-5.5C13.5 12 13 14.9 12.8 17.9M20.3 8.8H23v-6h-1.9C20.8 4.3 20.5 6.3 20.3 8.8M16.9 2.8c-1.1 1.5-2 3.6-2.6 6h5.4c0.2-2.3 0.5-4.4 0.9-6H16.9L16.9 2.8zM8 9.5c-1.1 2.6-1.9 5.5-2.3 8.4h6.4c0.2-3 0.7-5.8 1.4-8.4H8L8 9.5zM0.5 18.6C0.2 20 0 21.6 0 23.1c0 0 0 0 0 0h4.8v0c0-1.5 0.1-3.1 0.3-4.6H0.5L0.5 18.6zM19.8 17.9H23V9.5h-2.8C20 11.9 19.9 14.7 19.8 17.9M19.7 23.1L19.7 23.1l3.3 0v-4.6h-3.3C19.7 20 19.7 21.5 19.7 23.1M12.6 23.1L12.6 23.1l6.5 0v0c0-0.9 0-2.5 0.1-4.6h-6.4C12.6 20.1 12.6 21.6 12.6 23.1M4.5 9.5c-1.8 2.5-3.2 5.3-3.9 8.4h4.5c0.4-3 1.1-5.8 2.2-8.4H4.5L4.5 9.5zM5.7 18.6c-0.2 1.5-0.3 3.1-0.3 4.6 0 0 0 0 0 0h6.5v0c0-1.5 0.1-3.1 0.2-4.6H5.7L5.7 18.6zM23 0.1c-0.3 0-0.5 0-0.8 0 -0.3 0.3-0.6 0.9-0.9 2H23L23 0.1C23 0.1 23 0.1 23 0.1M17.4 2.2h3.2c0.2-0.8 0.5-1.5 0.8-2 -0.6 0-1.1 0.1-1.7 0.2C18.9 0.7 18.1 1.3 17.4 2.2M18.1 0.7c-1.5 0.3-2.9 0.8-4.3 1.4 -0.1 0-0.1 0.1-0.2 0.1h3C17.1 1.6 17.6 1.1 18.1 0.7M13.7 8.8c0.7-2.4 1.5-4.4 2.6-6h-3.4c-1.8 1.5-3.3 3.6-4.5 6H13.7L13.7 8.8zM11.3 3.4C8.8 4.8 6.7 6.7 5 8.8h2.6C8.6 6.7 9.8 4.9 11.3 3.4"/><path class="st0" d="M37.5 13.7c0.2-0.1 0.4-0.3 0.3-0.6 -0.1-0.2-0.3-0.3-0.6-0.3 -0.2 0.1-0.3 0.3-0.3 0.6C37 13.6 37.3 13.7 37.5 13.7L37.5 13.7z"/><path class="st0" d="M32.8 15.8c-0.8-0.2-1.6 0.5-1.8 1.6 -0.2 1.1 0.2 2.1 1 2.3 0.8 0.2 1.6-0.5 1.8-1.6C34 17 33.6 16 32.8 15.8L32.8 15.8z"/><path class="st0" d="M36 16.9c0.4 0.1 0.9 0.3 1.3 0.3 0.9 0.1 1.7 0.1 2.5-0.2 0.4-0.1 0.7-0.3 1-0.5 0.1-0.1 0.2-0.1 0.4-0.2 -0.7-0.4-3.4-2-3.7-2.1C37.4 14.4 36.3 16.3 36 16.9L36 16.9z"/><path class="st0" d="M39.8 7c0.4-0.1 0.7-0.3 1-0.5 0.1-0.1 0.2-0.1 0.4-0.2 -0.7-0.4-3.4-2-3.7-2.1 -0.2 0.2-1.2 2.1-1.5 2.7 0.4 0.1 0.9 0.3 1.3 0.3C38.2 7.3 39 7.2 39.8 7L39.8 7z"/><path class="st0" d="M26.3 0.1v23h23v-23H26.3L26.3 0.1zM35.6 6.7L37.2 4c-0.3-0.1-0.5-0.2-0.6-0.5 -0.2-0.4 0.1-0.9 0.5-1.1 0.4-0.1 0.9 0.1 1.1 0.5 0.1 0.4 0 0.8-0.3 1l3.8 2.2C41.8 6.1 41.9 6 42 6c0.4 0 0.9 0.1 1.1 0.5 0.2 0.4 0.2 1-0.1 1.3 -0.2 0.2-0.4 0.4-0.6 0.6 0.1-0.3 0-0.6 0-0.8C42.2 7.8 42.1 7.9 42 8c0 0 0 0.1 0 0.1 0 0.3-0.1 0.6-0.3 1 -0.3 0.2-0.6 0.4-1 0.6C40.9 9.4 41 9 41 8.6c-0.1 0.1-0.3 0.2-0.5 0.2 -0.1 0.4-0.4 0.9-0.8 1.2 -0.4 0.1-0.8 0.3-1.2 0.4 0.3-0.3 0.6-0.8 0.7-1.2 -0.2 0-0.3 0.1-0.5 0.1 -0.1 0.5-0.5 1-1 1.3 -0.4 0.1-0.7 0.1-1.1 0.1 0.4-0.4 0.7-0.9 0.8-1.4 -0.3 0-0.4 0.1-0.5 0.3 -0.1 0.2-0.2 0.4-0.4 0.6 -0.2 0.2-0.4 0.5-0.7 0.5 -0.1 0-0.3 0-0.4 0 -0.3 0-0.6 0-0.9-0.1C35.7 9.7 36.3 8.4 35.6 6.7 35.6 6.7 35.6 6.7 35.6 6.7L35.6 6.7 35.6 6.7zM30.6 7.3c0.2-0.8 0.6-1.4 1.1-1.8 0.4-0.2 0.8-0.3 1.2-0.2 0.2 0.1 0.4 0.2 0.6 0.3C34 6 34.5 6.2 35 6.4c0.2 0.1 0.3 0.5 0.3 0.6 0.1 0.2 0.1 0.5 0.2 0.8 0 0.5-0.1 1-0.3 1.4 -0.1 0.2-0.3 0.4-0.4 0.6 -0.2 0.2-0.3 0.4-0.6 0.5 -0.2 0.1-0.4 0.2-0.6 0.1 -0.5-0.1-0.9-0.2-1.4-0.3 -0.1 0-0.2 0-0.3 0C30.9 9.9 30.3 8.6 30.6 7.3L30.6 7.3zM34.2 20.4c-0.2 0.1-0.4 0.2-0.6 0.1 -0.5-0.1-0.9-0.2-1.4-0.3 -0.1 0-0.2 0-0.3 0 -1-0.3-1.6-1.5-1.3-2.9 0.2-0.8 0.6-1.4 1.1-1.8 0.4-0.2 0.8-0.3 1.2-0.2 0.2 0.1 0.4 0.2 0.6 0.3 0.5 0.3 1 0.6 1.5 0.8 0.2 0.1 0.3 0.5 0.3 0.6 0.1 0.2 0.1 0.5 0.2 0.7 0 0.5-0.1 1-0.3 1.4 -0.1 0.2-0.3 0.4-0.4 0.6C34.6 20.1 34.4 20.3 34.2 20.4L34.2 20.4zM43 17.9c-0.2 0.2-0.4 0.4-0.6 0.6 0.1-0.3 0-0.5 0-0.8 -0.1 0.1-0.2 0.2-0.3 0.3 0 0 0 0.1 0 0.1 0 0.3-0.1 0.6-0.3 1 -0.3 0.2-0.6 0.4-1 0.6 0.2-0.3 0.3-0.7 0.4-1 -0.1 0.1-0.3 0.2-0.5 0.2 -0.1 0.4-0.4 0.9-0.8 1.2 -0.4 0.2-0.8 0.3-1.2 0.4 0.3-0.3 0.6-0.8 0.7-1.2 -0.2 0-0.3 0.1-0.5 0.1 -0.1 0.5-0.5 1-1 1.3 -0.4 0.1-0.7 0.1-1.1 0.1 0.4-0.4 0.7-0.8 0.8-1.4 -0.3 0-0.4 0.1-0.5 0.3 -0.1 0.2-0.2 0.4-0.4 0.6 -0.2 0.2-0.4 0.5-0.7 0.5 -0.1 0-0.3 0-0.4 0 -0.3 0-0.6 0-0.9-0.1 1.1-0.9 1.7-2.3 1-4 0 0 0 0 0 0l0 0 1.6-2.7c-0.3-0.1-0.5-0.2-0.6-0.5 -0.2-0.4 0.1-0.9 0.5-1.1 0.4-0.1 0.9 0.1 1.1 0.5 0.1 0.4 0 0.8-0.3 1l3.8 2.2c0.1 0 0.2-0.1 0.3-0.1 0.4 0 0.9 0.1 1.1 0.5C43.3 16.9 43.3 17.6 43 17.9L43 17.9zM43.6 16.9c0-0.3-0.1-0.5-0.3-0.7 -0.3-0.4-0.7-0.6-1.2-0.6 1.4-1.3 2-2.9 2.5-2.8C44.9 12.9 44.8 14.9 43.6 16.9L43.6 16.9zM43.6 6.9c0-0.3-0.1-0.5-0.3-0.7 -0.3-0.4-0.7-0.6-1.2-0.6 1.4-1.3 2-2.9 2.5-2.8C44.9 2.9 44.8 4.9 43.6 6.9L43.6 6.9z"/><path class="st0" d="M32 9.7c0.8 0.2 1.6-0.5 1.8-1.6C34 7 33.6 6 32.8 5.8 32 5.6 31.2 6.3 31 7.4 30.8 8.5 31.2 9.5 32 9.7L32 9.7z"/><path class="st0" d="M37.5 3.6c0.2-0.1 0.4-0.3 0.3-0.6 -0.1-0.2-0.3-0.3-0.6-0.3C37 2.9 36.9 3.1 37 3.3 37 3.6 37.3 3.7 37.5 3.6L37.5 3.6z"/><path class="st0" d="M6.5 32.7c-0.4 0.2-0.7 0.3-1 0.3H4.4v0.5h1.1c0.3 0 0.7-0.2 1.2-0.4 0.6-0.3 1.2-0.5 1.8-0.5 0.9 0 1.6 0.4 1.7 0.4v-0.5c-0.3-0.1-1-0.4-1.7-0.4C7.7 32.2 7 32.5 6.5 32.7L6.5 32.7z"/><path class="st0" d="M16.8 42.3c-0.6-0.3-1.3-0.6-2-0.6 -0.7 0-1.3 0.2-1.7 0.4v0.5c0.1 0 0.8-0.4 1.7-0.4 0.7 0 1.3 0.3 1.8 0.5 0.4 0.2 0.8 0.4 1.2 0.4h1.1v-0.5h-1.1C17.6 42.6 17.2 42.4 16.8 42.3L16.8 42.3z"/><path class="st0" d="M6.5 34.7c-0.4 0.2-0.7 0.3-1 0.3H4.4v0.5h1.1c0.3 0 0.7-0.2 1.2-0.4 0.6-0.2 1.2-0.5 1.8-0.5 0.9 0 1.6 0.4 1.7 0.4v-0.5c-0.3-0.1-1-0.4-1.7-0.4C7.7 34.1 7 34.4 6.5 34.7L6.5 34.7z"/><path class="st0" d="M6.5 42.3c-0.4 0.2-0.7 0.3-1 0.3H4.4v0.5h1.1c0.3 0 0.7-0.2 1.2-0.4 0.6-0.2 1.2-0.5 1.8-0.5 0.9 0 1.6 0.4 1.7 0.4V42c-0.3-0.1-1-0.4-1.7-0.4C7.7 41.7 7 42 6.5 42.3L6.5 42.3z"/><path class="st0" d="M6.5 36.5c-0.4 0.2-0.7 0.3-1 0.3H4.4v0.5h1.1c0.3 0 0.7-0.2 1.2-0.4 0.6-0.3 1.2-0.5 1.8-0.5 0.9 0 1.6 0.4 1.7 0.4v-0.5c-0.3-0.1-1-0.4-1.7-0.4C7.7 36 7 36.3 6.5 36.5L6.5 36.5z"/><path class="st0" d="M6.5 40.5c-0.4 0.2-0.7 0.3-1 0.3H4.4v0.5h1.1c0.3 0 0.7-0.2 1.2-0.4 0.6-0.3 1.2-0.5 1.8-0.5 0.9 0 1.6 0.4 1.7 0.4v-0.5c-0.3-0.1-1-0.4-1.7-0.4C7.7 39.9 7 40.2 6.5 40.5L6.5 40.5z"/><path class="st0" d="M16.8 40.5c-0.6-0.3-1.3-0.6-2-0.6 -0.7 0-1.3 0.2-1.7 0.4v0.5c0.1 0 0.8-0.4 1.7-0.4 0.7 0 1.3 0.3 1.8 0.5 0.4 0.2 0.8 0.4 1.2 0.4h1.1v-0.5h-1.1C17.6 40.8 17.2 40.6 16.8 40.5L16.8 40.5z"/><path class="st0" d="M6.5 38.5c-0.4 0.2-0.7 0.3-1 0.3H4.4v0.5h1.1c0.3 0 0.7-0.2 1.2-0.4 0.6-0.3 1.2-0.5 1.8-0.5 0.9 0 1.6 0.4 1.7 0.4v-0.5c-0.3-0.1-1-0.4-1.7-0.4C7.7 37.9 7 38.2 6.5 38.5L6.5 38.5z"/><path class="st0" d="M16.8 34.7c-0.6-0.3-1.3-0.6-2-0.6 -0.7 0-1.3 0.2-1.7 0.4V35c0.1 0 0.8-0.4 1.7-0.4 0.7 0 1.3 0.3 1.8 0.5 0.4 0.2 0.8 0.4 1.2 0.4h1.1V35h-1.1C17.6 35 17.2 34.8 16.8 34.7L16.8 34.7z"/><path class="st0" d="M16.8 38.5c-0.6-0.3-1.3-0.6-2-0.6 -0.7 0-1.3 0.2-1.7 0.4v0.5c0.1 0 0.8-0.4 1.7-0.4 0.7 0 1.3 0.3 1.8 0.5 0.4 0.2 0.8 0.4 1.2 0.4h1.1v-0.5h-1.1C17.6 38.8 17.2 38.6 16.8 38.5L16.8 38.5z"/><path class="st0" d="M0 26.4v23h23v-23H0L0 26.4zM3.4 42.3H2.2c-0.3 0-0.5-0.2-0.5-0.5 0-0.3 0.2-0.5 0.5-0.5h1.2V42.3L3.4 42.3zM3.4 39.7H2.2c-0.3 0-0.5-0.2-0.5-0.5 0-0.3 0.2-0.5 0.5-0.5h1.2V39.7L3.4 39.7zM3.4 37.3H2.2c-0.3 0-0.5-0.2-0.5-0.5 0-0.3 0.2-0.5 0.5-0.5h1.2V37.3L3.4 37.3zM3.4 34.6H2.2c-0.3 0-0.5-0.2-0.5-0.5 0-0.3 0.2-0.5 0.5-0.5h1.2V34.6L3.4 34.6zM11.4 44.8c-0.5-0.3-1.6-1-2.4-1 -1.4 0-2 0.9-3.3 0.9 -0.9 0-2-0.1-2-0.1V31.3c0 0 1.1 0.1 2 0.1 0.9 0 1.7-0.8 3.3-0.8 0.8 0 2 0.6 2.4 0.9V44.8L11.4 44.8zM17.6 44.7c-1.3 0-1.3-0.9-3.4-0.9 -0.8 0-2 0.7-2.5 1V31.5c0.5-0.3 1.6-0.9 2.4-0.9 1.4 0 2.4 0.8 3.2 0.8 0.9 0 2.1-0.1 2.1-0.1l0 13.3C19.6 44.6 18.5 44.7 17.6 44.7L17.6 44.7zM20.9 41h-1.1v-1.1h1.1c0.3 0 0.5 0.2 0.5 0.5C21.5 40.7 21.2 41 20.9 41L20.9 41zM20.9 38.5L20.9 38.5l-1.1 0v-1.1h1.1c0.3 0 0.5 0.2 0.5 0.5C21.5 38.2 21.2 38.5 20.9 38.5L20.9 38.5zM20.9 35.9h-1.1v-1.1h1.1v0c0.3 0 0.5 0.2 0.5 0.5C21.5 35.7 21.2 35.9 20.9 35.9L20.9 35.9z"/><path class="st0" d="M16.8 32.7c-0.6-0.3-1.3-0.6-2-0.6 -0.7 0-1.3 0.2-1.7 0.4v0.5c0.1 0 0.8-0.4 1.7-0.4 0.7 0 1.3 0.3 1.8 0.5 0.4 0.2 0.8 0.4 1.2 0.4h1.1v-0.5h-1.1C17.6 33.1 17.2 32.9 16.8 32.7L16.8 32.7z"/><path class="st0" d="M16.8 36.5c-0.6-0.3-1.3-0.6-2-0.6 -0.7 0-1.3 0.2-1.7 0.4v0.5c0.1 0 0.8-0.4 1.7-0.4 0.7 0 1.3 0.3 1.8 0.5 0.4 0.2 0.8 0.4 1.2 0.4h1.1v-0.5h-1.1C17.6 36.9 17.2 36.7 16.8 36.5L16.8 36.5z"/><path d="M73.9 9.6c0 0.7-0.1 1.4-0.2 2.1 -0.2 0.7-0.4 1.3-0.8 1.8 -0.4 0.5-0.9 0.9-1.5 1.2 -0.6 0.3-1.4 0.5-2.3 0.5 -0.9 0-1.7-0.2-2.3-0.5 -0.6-0.3-1.2-0.7-1.5-1.2 -0.4-0.5-0.7-1.1-0.8-1.8 -0.2-0.7-0.3-1.4-0.3-2.1V1.2h1.3v8.1c0 0.5 0 1 0.1 1.6 0.1 0.6 0.3 1.1 0.5 1.5 0.3 0.5 0.6 0.9 1.1 1.2 0.5 0.3 1.1 0.5 1.9 0.5 0.8 0 1.4-0.2 1.9-0.5 0.5-0.3 0.9-0.7 1.1-1.2 0.3-0.5 0.4-1 0.5-1.5 0.1-0.6 0.1-1.1 0.1-1.6V1.2h1.3V9.6L73.9 9.6z"/><polygon points="78.4 1.2 80.1 1.2 88.4 13.1 88.4 13.1 88.4 1.2 89.7 1.2 89.7 14.8 88 14.8 79.7 2.9 79.7 2.9 79.7 14.8 78.4 14.8 78.4 1.2 "/><polygon points="94.4 1.2 95.6 1.2 95.6 14.8 94.4 14.8 94.4 1.2 "/><polygon points="99.1 1.2 100.4 1.2 104.8 13.1 109.3 1.2 110.6 1.2 105.4 14.8 104.2 14.8 99.1 1.2 "/><polygon points="114 1.2 122.3 1.2 122.3 2.3 115.2 2.3 115.2 7.2 121.9 7.2 121.9 8.3 115.2 8.3 115.2 13.7 122.6 13.7 122.6 14.8 114 14.8 114 1.2 "/><path d="M127 1.2h3.6c0.2 0 0.4 0 0.7 0 0.3 0 0.6 0.1 1 0.1 0.4 0.1 0.7 0.2 1.1 0.3 0.4 0.1 0.7 0.3 1 0.6 0.3 0.3 0.5 0.6 0.7 1 0.2 0.4 0.3 0.9 0.3 1.5 0 0.7-0.1 1.2-0.3 1.6 -0.2 0.4-0.5 0.8-0.9 1 -0.3 0.3-0.7 0.5-1.1 0.6 -0.4 0.1-0.8 0.2-1.2 0.3l4 6.6h-1.4l-3.8-6.5h-2.4v6.5H127V1.2L127 1.2zM128.3 7.2h2.7c0.7 0 1.2-0.1 1.6-0.3 0.4-0.2 0.7-0.4 1-0.6 0.2-0.2 0.4-0.5 0.5-0.8 0.1-0.3 0.1-0.5 0.1-0.8 0-0.2 0-0.5-0.1-0.8 -0.1-0.3-0.2-0.5-0.5-0.8 -0.2-0.2-0.6-0.5-1-0.6 -0.4-0.2-1-0.3-1.6-0.3h-2.7V7.2L128.3 7.2z"/><path d="M140.3 12.3c0.3 0.6 0.8 1 1.3 1.3 0.5 0.3 1.1 0.4 1.8 0.4 0.4 0 0.8-0.1 1.2-0.2 0.4-0.1 0.7-0.3 1-0.5 0.3-0.2 0.5-0.5 0.7-0.8 0.2-0.3 0.2-0.7 0.2-1.1 0-0.5-0.1-0.9-0.3-1.2 -0.2-0.3-0.5-0.6-0.8-0.8 -0.3-0.2-0.7-0.4-1.1-0.5 -0.4-0.1-0.9-0.3-1.3-0.4 -0.4-0.1-0.9-0.3-1.3-0.5 -0.4-0.2-0.8-0.4-1.1-0.7 -0.3-0.3-0.6-0.7-0.8-1.1 -0.2-0.4-0.3-1-0.3-1.6 0-0.6 0.1-1.1 0.4-1.6 0.2-0.5 0.6-0.9 1-1.2 0.4-0.3 0.9-0.6 1.4-0.7 0.5-0.2 1.1-0.2 1.7-0.2 0.7 0 1.4 0.1 2.1 0.4 0.6 0.3 1.2 0.7 1.7 1.3l-1.1 0.8c-0.3-0.5-0.7-0.8-1.1-1 -0.4-0.2-0.9-0.3-1.5-0.3 -0.4 0-0.8 0.1-1.2 0.2 -0.4 0.1-0.7 0.3-1 0.5 -0.3 0.2-0.5 0.5-0.7 0.8 -0.2 0.3-0.2 0.7-0.2 1.1 0 0.7 0.2 1.2 0.5 1.6 0.3 0.4 0.8 0.7 1.3 0.9 0.5 0.2 1.1 0.4 1.7 0.6 0.6 0.2 1.2 0.4 1.7 0.6 0.5 0.3 1 0.6 1.3 1.1 0.3 0.5 0.5 1.1 0.5 2 0 0.6-0.1 1.2-0.3 1.6 -0.2 0.5-0.5 0.9-0.9 1.2 -0.4 0.3-0.8 0.6-1.4 0.7 -0.5 0.2-1 0.3-1.6 0.3 -0.9 0-1.7-0.2-2.5-0.5 -0.8-0.3-1.4-0.8-1.9-1.6L140.3 12.3 140.3 12.3z"/><polygon points="152 1.2 153.3 1.2 153.3 14.8 152 14.8 152 1.2 "/><polygon points="161.6 2.3 156.9 2.3 156.9 1.2 167.6 1.2 167.6 2.3 162.9 2.3 162.9 14.8 161.6 14.8 161.6 2.3 "/><polygon points="174.3 8.9 169.3 1.2 170.8 1.2 174.9 7.6 179.2 1.2 180.6 1.2 175.6 8.9 175.6 14.8 174.3 14.8 174.3 8.9 "/><path d="M186.7 10.4c0-0.7 0.1-1.3 0.3-1.9 0.2-0.6 0.6-1.1 1-1.5 0.4-0.4 0.9-0.7 1.5-1 0.6-0.2 1.2-0.3 1.9-0.3 0.7 0 1.3 0.1 1.9 0.3 0.6 0.2 1.1 0.6 1.5 1 0.4 0.4 0.7 0.9 1 1.5 0.2 0.6 0.3 1.2 0.3 1.9 0 0.7-0.1 1.3-0.3 1.9 -0.2 0.6-0.6 1.1-1 1.5 -0.4 0.4-0.9 0.7-1.5 1 -0.6 0.2-1.2 0.3-1.9 0.3 -0.7 0-1.3-0.1-1.9-0.3 -0.6-0.2-1.1-0.6-1.5-1 -0.4-0.4-0.7-0.9-1-1.5C186.8 11.7 186.7 11 186.7 10.4L186.7 10.4zM187.8 10.4c0 0.5 0.1 1 0.2 1.4 0.2 0.4 0.4 0.8 0.7 1.2 0.3 0.3 0.7 0.6 1.1 0.8 0.4 0.2 0.9 0.3 1.5 0.3 0.5 0 1-0.1 1.5-0.3 0.4-0.2 0.8-0.5 1.1-0.8 0.3-0.3 0.5-0.7 0.7-1.2 0.2-0.4 0.2-0.9 0.2-1.4 0-0.5-0.1-1-0.2-1.4 -0.2-0.4-0.4-0.8-0.7-1.2 -0.3-0.3-0.7-0.6-1.1-0.8s-0.9-0.3-1.5-0.3c-0.5 0-1 0.1-1.5 0.3 -0.4 0.2-0.8 0.5-1.1 0.8 -0.3 0.3-0.5 0.7-0.7 1.2C187.9 9.4 187.8 9.9 187.8 10.4L187.8 10.4z"/><path d="M199.9 7H198v-1h1.9V3c0-0.6 0.1-1.1 0.3-1.4 0.2-0.4 0.4-0.7 0.6-0.9 0.3-0.2 0.5-0.4 0.9-0.5C202 0 202.3 0 202.5 0c0.5 0 1 0.1 1.3 0.2l-0.2 1c-0.3-0.1-0.6-0.2-1-0.2 -1 0-1.6 0.8-1.6 2.4v2.5h2.1v1H201v7.9h-1.2V7L199.9 7z"/><path d="M63.9 23.7H71c0.9 0 1.9 0.1 2.8 0.2 1 0.1 1.8 0.5 2.6 0.9 0.8 0.5 1.4 1.1 1.8 2 0.5 0.8 0.7 2 0.7 3.4 0 1.3-0.4 2.3-1.1 3.3 -0.7 0.9-1.8 1.5-3.3 1.8v0.1c0.8 0.1 1.6 0.3 2.2 0.6 0.7 0.3 1.2 0.7 1.7 1.2 0.5 0.5 0.9 1.1 1.1 1.9 0.3 0.7 0.4 1.5 0.4 2.4 0 1.4-0.3 2.6-0.8 3.5 -0.5 0.9-1.2 1.6-2.1 2.1 -0.8 0.5-1.7 0.9-2.7 1 -1 0.2-1.9 0.3-2.7 0.3h-7.9V23.7L63.9 23.7zM66.2 34.3h4.8c1.2 0 2.1-0.1 2.9-0.4 0.7-0.3 1.3-0.6 1.7-1.1 0.4-0.4 0.7-0.9 0.8-1.3 0.1-0.5 0.2-0.9 0.2-1.3 0-0.9-0.1-1.6-0.4-2.1 -0.3-0.6-0.7-1-1.2-1.4 -0.5-0.3-1.1-0.6-1.7-0.7 -0.6-0.1-1.3-0.2-2.1-0.2h-5.1V34.3L66.2 34.3zM66.2 46.2h5.2c1.3 0 2.4-0.2 3.3-0.5 0.8-0.3 1.5-0.7 1.9-1.2 0.4-0.5 0.7-1 0.9-1.5 0.2-0.5 0.2-1 0.2-1.5 0-0.9-0.2-1.7-0.5-2.3 -0.3-0.6-0.8-1.2-1.4-1.6 -0.6-0.4-1.2-0.7-1.9-0.9 -0.7-0.2-1.4-0.3-2.1-0.3h-5.6V46.2L66.2 46.2z"/><path d="M85.4 23.7h6.5c0.3 0 0.8 0 1.3 0 0.6 0 1.2 0.1 1.8 0.2 0.6 0.1 1.3 0.3 2 0.6 0.7 0.3 1.3 0.6 1.8 1.1 0.5 0.5 1 1.1 1.3 1.8 0.3 0.7 0.5 1.6 0.5 2.7 0 1.2-0.2 2.2-0.6 2.9 -0.4 0.8-0.9 1.4-1.5 1.9 -0.6 0.5-1.3 0.8-2 1.1 -0.7 0.2-1.4 0.4-2.1 0.5l7.2 11.8h-2.6L92 36.6h-4.3v11.7h-2.3V23.7L85.4 23.7zM87.7 34.5h4.9c1.2 0 2.2-0.2 2.9-0.5 0.8-0.3 1.3-0.7 1.8-1.1 0.4-0.4 0.7-0.9 0.9-1.4 0.2-0.5 0.2-1 0.2-1.4 0-0.4-0.1-0.9-0.2-1.4 -0.2-0.5-0.4-1-0.9-1.4 -0.4-0.4-1-0.8-1.8-1.1 -0.8-0.3-1.7-0.5-2.9-0.5h-4.9V34.5L87.7 34.5z"/><path d="M115.8 23.7h2.4l10.4 24.6h-2.6l-2.7-6.5h-13l-2.8 6.5H105L115.8 23.7 115.8 23.7zM116.9 26.2l-5.7 13.5h11.3L116.9 26.2 116.9 26.2z"/><path d="M133.2 23.7h7.6c2.1 0 3.9 0.3 5.4 0.8 1.5 0.5 2.7 1.2 3.7 2 1 0.8 1.8 1.7 2.3 2.7 0.6 1 1 1.9 1.3 2.8 0.3 0.9 0.4 1.7 0.5 2.5 0.1 0.7 0.1 1.2 0.1 1.5 0 0.3 0 0.8-0.1 1.5 -0.1 0.7-0.2 1.5-0.5 2.5 -0.3 0.9-0.7 1.8-1.3 2.8 -0.6 1-1.3 1.9-2.3 2.7 -1 0.8-2.2 1.5-3.7 2 -1.5 0.5-3.3 0.8-5.4 0.8h-7.6V23.7L133.2 23.7zM135.4 46.2h4.7c1.6 0 3.1-0.2 4.6-0.6 1.4-0.4 2.6-1 3.7-1.9 1-0.8 1.9-1.9 2.5-3.2 0.6-1.3 0.9-2.8 0.9-4.6 0-1.8-0.3-3.3-0.9-4.6 -0.6-1.3-1.4-2.3-2.5-3.2 -1-0.8-2.3-1.5-3.7-1.9 -1.4-0.4-2.9-0.6-4.6-0.6h-4.7V46.2L135.4 46.2z"/><polygon points="159.5 23.7 174.2 23.7 174.2 25.8 161.8 25.8 161.8 34.5 173.3 34.5 173.3 36.6 161.8 36.6 161.8 48.3 159.5 48.3 159.5 23.7 "/><path d="M179.3 36c0-1.9 0.3-3.6 0.9-5.2 0.6-1.6 1.5-2.9 2.6-4.1 1.1-1.1 2.5-2 4-2.7 1.6-0.6 3.3-1 5.2-1 1.9 0 3.6 0.3 5.2 1 1.6 0.6 2.9 1.5 4 2.7 1.1 1.1 2 2.5 2.6 4.1 0.6 1.6 0.9 3.3 0.9 5.2 0 1.9-0.3 3.6-0.9 5.2 -0.6 1.6-1.5 3-2.6 4.1 -1.1 1.1-2.4 2-4 2.7 -1.6 0.6-3.3 1-5.2 1 -1.9 0-3.6-0.3-5.2-1 -1.6-0.6-2.9-1.5-4-2.7 -1.1-1.1-2-2.5-2.6-4.1C179.6 39.6 179.3 37.9 179.3 36L179.3 36zM181.6 36c0 1.5 0.2 3 0.7 4.3 0.5 1.3 1.2 2.5 2.1 3.4 0.9 1 2 1.7 3.3 2.3 1.3 0.6 2.7 0.8 4.3 0.8 1.6 0 3-0.3 4.3-0.8 1.3-0.6 2.4-1.3 3.3-2.3 0.9-1 1.6-2.1 2.1-3.4 0.5-1.3 0.7-2.7 0.7-4.3 0-1.5-0.2-3-0.7-4.3 -0.5-1.3-1.2-2.5-2.1-3.4 -0.9-1-2-1.7-3.3-2.3 -1.3-0.6-2.7-0.8-4.3-0.8 -1.6 0-3 0.3-4.3 0.8 -1.3 0.6-2.4 1.3-3.3 2.3 -0.9 1-1.6 2.1-2.1 3.4C181.9 33 181.6 34.5 181.6 36L181.6 36z"/><path d="M210.8 23.7h6.5c0.3 0 0.8 0 1.3 0 0.6 0 1.2 0.1 1.8 0.2 0.6 0.1 1.3 0.3 2 0.6 0.7 0.3 1.3 0.6 1.8 1.1 0.5 0.5 1 1.1 1.3 1.8 0.3 0.7 0.5 1.6 0.5 2.7 0 1.2-0.2 2.2-0.6 2.9 -0.4 0.8-0.9 1.4-1.5 1.9 -0.6 0.5-1.3 0.8-2 1.1 -0.7 0.2-1.4 0.4-2.1 0.5l7.2 11.8h-2.6l-6.9-11.7h-4.3v11.7h-2.3V23.7L210.8 23.7zM213.1 34.5h4.9c1.2 0 2.2-0.2 2.9-0.5 0.8-0.3 1.3-0.7 1.8-1.1 0.4-0.4 0.7-0.9 0.9-1.4 0.2-0.5 0.2-1 0.2-1.4 0-0.4-0.1-0.9-0.2-1.4 -0.2-0.5-0.4-1-0.9-1.4 -0.4-0.4-1-0.8-1.8-1.1 -0.8-0.3-1.7-0.5-2.9-0.5h-4.9V34.5L213.1 34.5z"/><path d="M232.1 23.7h7.6c2.1 0 3.9 0.3 5.4 0.8 1.5 0.5 2.7 1.2 3.7 2 1 0.8 1.8 1.7 2.3 2.7 0.6 1 1 1.9 1.2 2.8 0.3 0.9 0.4 1.7 0.5 2.5 0.1 0.7 0.1 1.2 0.1 1.5 0 0.3 0 0.8-0.1 1.5 -0.1 0.7-0.2 1.5-0.5 2.5 -0.3 0.9-0.7 1.8-1.2 2.8 -0.6 1-1.3 1.9-2.3 2.7 -1 0.8-2.2 1.5-3.7 2 -1.5 0.5-3.3 0.8-5.4 0.8h-7.6V23.7L232.1 23.7zM234.4 46.2h4.7c1.6 0 3.1-0.2 4.6-0.6 1.4-0.4 2.6-1 3.7-1.9 1-0.8 1.9-1.9 2.5-3.2 0.6-1.3 0.9-2.8 0.9-4.6 0-1.8-0.3-3.3-0.9-4.6 -0.6-1.3-1.4-2.3-2.5-3.2 -1-0.8-2.3-1.5-3.7-1.9 -1.4-0.4-2.9-0.6-4.6-0.6h-4.7V46.2L234.4 46.2z"/></svg>